<svg xmlns="http://www.w3.org/2000/svg" viewBox="0 0 1600 900" preserveAspectRatio="xMidYMid slice">
  <defs>
    <radialGradient id="skyGlow" cx="50%" cy="38%" r="56%">
      <stop offset="0" stop-color="#d8efff" stop-opacity="0.26"/>
      <stop offset="0.28" stop-color="#617aa7" stop-opacity="0.18"/>
      <stop offset="1" stop-color="#02040a" stop-opacity="1"/>
    </radialGradient>
    <radialGradient id="redGlow" cx="50%" cy="82%" r="50%">
      <stop offset="0" stop-color="#ff3838" stop-opacity="0.48"/>
      <stop offset="0.38" stop-color="#9d1d25" stop-opacity="0.18"/>
      <stop offset="1" stop-color="#02040a" stop-opacity="0"/>
    </radialGradient>
    <linearGradient id="metal" x1="0" x2="1" y1="0" y2="1">
      <stop offset="0" stop-color="#f7fbff" stop-opacity="0.95"/>
      <stop offset="0.4" stop-color="#9dbbd4" stop-opacity="0.44"/>
      <stop offset="1" stop-color="#ffffff" stop-opacity="0.78"/>
    </linearGradient>
    <filter id="blur"><feGaussianBlur stdDeviation="7"/></filter>
    <filter id="glow"><feGaussianBlur stdDeviation="5" result="b"/><feMerge><feMergeNode in="b"/><feMergeNode in="SourceGraphic"/></feMerge></filter>
  </defs>

  <rect width="1600" height="900" fill="#02040a"/>
  <rect width="1600" height="900" fill="url(#skyGlow)"/>
  <rect width="1600" height="900" fill="url(#redGlow)"/>

  <g opacity="0.38" filter="url(#blur)">
    <path d="M0 610 C170 455 310 610 430 420 C570 640 660 475 800 360 C950 610 1040 470 1160 390 C1280 600 1410 480 1600 580 L1600 900 L0 900 Z" fill="#121a2a"/>
  </g>
  <path d="M0 670 L95 520 L160 720 L260 430 L365 735 L470 555 L590 760 L690 385 L820 745 L935 530 L1020 760 L1135 455 L1255 760 L1365 410 L1490 730 L1600 535 L1600 900 L0 900 Z" fill="#050812"/>
  <path d="M0 760 L120 640 L210 810 L330 520 L470 815 L590 650 L740 830 L840 495 L980 825 L1110 645 L1210 820 L1350 520 L1470 800 L1600 650 L1600 900 L0 900 Z" fill="#010205" opacity="0.96"/>

  <g opacity="0.8" filter="url(#glow)">
    <circle cx="800" cy="450" r="260" fill="none" stroke="#d8efff" stroke-opacity="0.22" stroke-width="3"/>
    <circle cx="800" cy="450" r="232" fill="none" stroke="#ff4b4b" stroke-opacity="0.34" stroke-width="2"/>
    <path d="M540 450 A260 260 0 0 1 1060 450" fill="none" stroke="#ff4b4b" stroke-width="5" stroke-linecap="round" opacity="0.7"/>
  </g>

  <g opacity="0.56" filter="url(#glow)">
    <polygon points="800,250 910,450 800,650 690,450" fill="none" stroke="#8bb8ff" stroke-opacity="0.28" stroke-width="2"/>
    <polygon points="800,310 870,450 800,590 730,450" fill="none" stroke="#d8efff" stroke-opacity="0.20" stroke-width="2"/>
  </g>

  <g opacity="0.85" filter="url(#glow)">
    <text x="800" y="475" text-anchor="middle" font-family="Arial, Helvetica, sans-serif" font-size="118" font-weight="700" letter-spacing="22" fill="#dff4ff">KELARIS</text>
    <text x="800" y="548" text-anchor="middle" font-family="Arial, Helvetica, sans-serif" font-size="32" font-weight="700" letter-spacing="18" fill="#ff5a5a">GAME STUDIOS</text>
  </g>

  <g opacity="0.78" filter="url(#glow)">
    <polygon points="250,180 292,205 270,272 224,242" fill="url(#metal)"/>
    <polygon points="1320,105 1380,140 1344,230 1288,185" fill="url(#metal)"/>
    <polygon points="1120,170 1156,198 1130,250 1092,220" fill="url(#metal)"/>
    <polygon points="410,330 468,360 435,428 382,392" fill="url(#metal)"/>
    <polygon points="1220,355 1275,395 1230,462 1188,420" fill="url(#metal)"/>
    <polygon points="615,135 650,160 628,218 590,188" fill="url(#metal)"/>
    <polygon points="980,120 1024,148 998,214 954,182" fill="url(#metal)"/>
    <polygon points="520,690 566,716 540,785 488,748" fill="url(#metal)"/>
    <polygon points="1080,650 1134,680 1100,760 1048,718" fill="url(#metal)"/>
  </g>

  <g opacity="0.5">
    <line x1="805" y1="0" x2="805" y2="320" stroke="#eaf7ff" stroke-opacity="0.32" stroke-width="3"/>
    <line x1="805" y1="0" x2="805" y2="640" stroke="#eaf7ff" stroke-opacity="0.08" stroke-width="16"/>
    <ellipse cx="800" cy="830" rx="520" ry="28" fill="#ff3838" opacity="0.18"/>
  </g>

  <g opacity="0.45">
    <circle cx="130" cy="90" r="2" fill="#fff"/><circle cx="290" cy="240" r="1.4" fill="#fff"/><circle cx="1410" cy="250" r="2" fill="#fff"/><circle cx="1160" cy="92" r="1.5" fill="#fff"/><circle cx="730" cy="104" r="2" fill="#fff"/>
  </g>
</svg>
